<svg xmlns="http://www.w3.org/2000/svg" viewBox="0 0 1200 700"><defs><linearGradient id="bg" x1="0" y1="0" x2="1" y2="1"><stop stop-color="#0b1027"/><stop offset="1" stop-color="#20114b"/></linearGradient><linearGradient id="g" x1="0" y1="0" x2="1" y2="1"><stop stop-color="#6b7cff"/><stop offset=".55" stop-color="#a94cff"/><stop offset="1" stop-color="#ef55d6"/></linearGradient><filter id="glow"><feGaussianBlur stdDeviation="18"/></filter></defs><rect width="1200" height="700" rx="48" fill="url(#bg)"/><circle cx="930" cy="130" r="170" fill="#7d4cff" opacity=".2" filter="url(#glow)"/><rect x="80" y="72" width="1040" height="556" rx="34" fill="#0d1734" stroke="#ffffff1f" stroke-width="2"/><rect x="112" y="105" width="270" height="24" rx="12" fill="#ffffff1e"/><rect x="112" y="158" width="430" height="300" rx="24" fill="#131f48" stroke="#7d6cff55"/><circle cx="327" cy="308" r="118" fill="none" stroke="#784fff" stroke-width="3"/><circle cx="327" cy="308" r="86" fill="none" stroke="#d254ff" stroke-width="2" opacity=".7"/><path d="M210 308h234M327 191v234M244 225l166 166M410 225L244 391" stroke="#ffffff42" stroke-width="2"/><circle cx="327" cy="190" r="10" fill="#6bdcff"/><circle cx="444" cy="308" r="10" fill="#ef5adf"/><circle cx="327" cy="426" r="10" fill="#7d66ff"/><circle cx="210" cy="308" r="10" fill="#9ef0ff"/><rect x="575" y="158" width="500" height="92" rx="20" fill="#111b3d"/><rect x="605" y="182" width="190" height="16" rx="8" fill="#ffffff28"/><rect x="605" y="210" width="330" height="11" rx="6" fill="#ffffff16"/><rect x="575" y="270" width="240" height="188" rx="20" fill="#131f48"/><rect x="835" y="270" width="240" height="188" rx="20" fill="#131f48"/><path d="M610 408c28-70 62-96 92-72s36 3 75-28" fill="none" stroke="url(#g)" stroke-width="10" stroke-linecap="round"/><g fill="url(#g)"><rect x="875" y="386" width="28" height="40" rx="8"/><rect x="919" y="352" width="28" height="74" rx="8"/><rect x="963" y="319" width="28" height="107" rx="8"/><rect x="1007" y="286" width="28" height="140" rx="8"/></g><text x="112" y="540" fill="#fff" font-family="Arial,sans-serif" font-size="36" font-weight="700">PRO KP ASTROLOGY</text><text x="112" y="584" fill="#aeb8d3" font-family="Arial,sans-serif" font-size="22">Charts • Panchangam • Horary • Insight</text></svg>